# xmcd
#
# Track frame offsets: 
#        150
#        18667
#        37572
#        60310
#        83430
#        102422
#        131265
#        151637
#        170857
#        191517
#        201370
#        221022
#        238370
#
# Disc length: 3424 seconds
#
# Revision: 0
# Processed by: cddbd v1.5.2PL0 Copyright (c) Steve Scherf et al.
# Submitted via: ExactAudioCopyFreeDBPlugin 1.0
#
DISCID=a50d5e0d
DTITLE=แอ๊ด คาราบาว - Vol 2 ทำมือ
DYEAR=1900
DGENRE=Thai Country
TTITLE0=ทำมือ
TTITLE1=รักทรหด (2)
TTITLE2=สุรชัย 3 ช่า
TTITLE3=พลจันทร เดือนเพ็ญ (รำลึกนายผี)
TTITLE4=วอลซ์ ทบ.
TTITLE5=ฉานสเตท
TTITLE6=ออกซิเจน
TTITLE7=แง้มใจ
TTITLE8=รักต้องสู้
TTITLE9=สระแก้ว
TTITLE10=สิงคโปร์
TTITLE11=ไอ้โต
TTITLE12=โอ้ลาล้า
EXTD=
EXTT0=
EXTT1=
EXTT2=
EXTT3=
EXTT4=
EXTT5=
EXTT6=
EXTT7=
EXTT8=
EXTT9=
EXTT10=
EXTT11=
EXTT12=
PLAYORDER=
